<svg width="42" height="42" viewBox="0 0 42 42" fill="none" xmlns="http://www.w3.org/2000/svg">
<rect opacity="0.5" width="42" height="42" rx="21" fill="#E7E7E7"/>
<path d="M18.1572 29.7714V26.7047C18.1572 25.9246 18.7931 25.2908 19.581 25.2856H22.4671C23.2587 25.2856 23.9005 25.9209 23.9005 26.7047V26.7047V29.7809C23.9003 30.4432 24.4343 30.9845 25.103 31H27.0271C28.9451 31 30.5 29.4607 30.5 27.5618V27.5618V18.8378C30.4898 18.0908 30.1355 17.3893 29.538 16.933L22.9577 11.6853C21.8049 10.7716 20.1662 10.7716 19.0134 11.6853L12.462 16.9426C11.8623 17.397 11.5074 18.0997 11.5 18.8474V27.5618C11.5 29.4607 13.0549 31 14.9729 31H16.897C17.5824 31 18.138 30.4499 18.138 29.7714V29.7714" stroke="black" stroke-width="1.5" stroke-linecap="round" stroke-linejoin="round"/>
</svg>
