<svg width="42" height="42" viewBox="0 0 42 42" fill="none" xmlns="http://www.w3.org/2000/svg">
<rect opacity="0.5" width="42" height="42" rx="21" fill="#E7E7E7"/>
<path fill-rule="evenodd" clip-rule="evenodd" d="M25.3341 11.75H16.6651C13.6441 11.75 11.7501 13.889 11.7501 16.916V25.084C11.7501 28.111 13.6351 30.25 16.6651 30.25H25.3331C28.3641 30.25 30.2501 28.111 30.2501 25.084V16.916C30.2501 13.889 28.3641 11.75 25.3341 11.75Z" stroke="black" stroke-width="1.5" stroke-linecap="round" stroke-linejoin="round"/>
<path fill-rule="evenodd" clip-rule="evenodd" d="M19.6891 20.9999C19.6891 22.0229 18.8601 22.8519 17.8371 22.8519C16.8141 22.8519 15.9851 22.0229 15.9851 20.9999C15.9851 19.9769 16.8141 19.1479 17.8371 19.1479H17.8401C18.8611 19.1489 19.6891 19.9779 19.6891 20.9999Z" stroke="black" stroke-width="1.5" stroke-linecap="round" stroke-linejoin="round"/>
<path d="M19.692 21H26.01V22.852" stroke="black" stroke-width="1.5" stroke-linecap="round" stroke-linejoin="round"/>
<path d="M23.1818 22.852V21" stroke="black" stroke-width="1.5" stroke-linecap="round" stroke-linejoin="round"/>
</svg>
