<svg xmlns="http://www.w3.org/2000/svg" xmlns:xlink="http://www.w3.org/1999/xlink" width="500" zoomAndPan="magnify" viewBox="0 0 375 374.999991" height="500" preserveAspectRatio="xMidYMid meet" version="1.0"><defs><clipPath id="72f9ac6751"><path d="M 106.363281 40.707031 L 264 40.707031 L 264 307 L 106.363281 307 Z M 106.363281 40.707031 " clip-rule="nonzero"/></clipPath><clipPath id="e2412aef4d"><path d="M 188 324 L 268.363281 324 L 268.363281 333.957031 L 188 333.957031 Z M 188 324 " clip-rule="nonzero"/></clipPath></defs><rect x="-37.5" width="450" fill="#ffffff" y="-37.499999" height="449.999989" fill-opacity="1"/><rect x="-37.5" width="450" fill="#ffffff" y="-37.499999" height="449.999989" fill-opacity="1"/><rect x="-37.5" width="450" fill="#ffffff" y="-37.499999" height="449.999989" fill-opacity="1"/><path fill="#fd9340" d="M 143.09375 83.472656 C 140.042969 83.472656 133.933594 83.472656 133.933594 83.472656 C 130.882812 86.527344 130.882812 89.582031 130.882812 92.636719 C 133.933594 92.636719 133.933594 92.636719 136.988281 89.582031 C 140.042969 89.582031 140.042969 86.527344 143.09375 83.472656 Z M 143.09375 83.472656 " fill-opacity="1" fill-rule="evenodd"/><path fill="#fd9340" d="M 130.882812 227.042969 C 121.722656 233.152344 118.671875 239.261719 118.671875 245.371094 C 118.671875 251.480469 121.722656 257.589844 130.882812 263.699219 C 130.882812 260.644531 130.882812 260.644531 133.933594 260.644531 C 127.828125 254.535156 127.828125 251.480469 127.828125 245.371094 C 127.828125 239.261719 127.828125 233.152344 130.882812 227.042969 C 130.882812 227.042969 130.882812 227.042969 133.933594 223.988281 C 130.882812 223.988281 130.882812 227.042969 130.882812 227.042969 Z M 256.054688 89.582031 Z M 194.996094 220.933594 C 170.570312 236.207031 155.304688 251.480469 143.09375 263.699219 C 133.933594 275.917969 127.828125 291.191406 127.828125 300.355469 C 130.882812 294.246094 136.988281 285.082031 146.148438 282.027344 C 176.675781 266.753906 149.199219 269.808594 191.941406 272.863281 C 204.15625 275.917969 216.367188 297.300781 216.367188 297.300781 C 216.367188 297.300781 219.421875 300.355469 219.421875 300.355469 C 222.472656 300.355469 222.472656 297.300781 222.472656 297.300781 C 219.421875 294.246094 216.367188 288.136719 219.421875 285.082031 C 219.421875 278.972656 222.472656 275.917969 225.527344 272.863281 L 228.578125 272.863281 C 234.683594 272.863281 240.792969 272.863281 243.84375 275.917969 C 249.949219 278.972656 253.003906 285.082031 256.054688 291.191406 C 256.054688 294.246094 256.054688 294.246094 256.054688 294.246094 L 256.054688 297.300781 C 256.054688 297.300781 256.054688 297.300781 259.109375 297.300781 C 262.164062 278.972656 259.109375 257.589844 253.003906 236.207031 C 249.949219 211.769531 240.792969 187.332031 228.578125 162.894531 C 219.421875 141.511719 216.367188 126.238281 213.3125 114.019531 C 213.3125 101.800781 213.3125 92.636719 219.421875 86.527344 C 219.421875 86.527344 222.472656 86.527344 222.472656 86.527344 C 225.527344 86.527344 222.472656 89.582031 225.527344 89.582031 L 243.84375 101.800781 C 246.898438 104.855469 249.949219 104.855469 249.949219 104.855469 C 253.003906 104.855469 256.054688 101.800781 256.054688 101.800781 C 259.109375 98.746094 259.109375 98.746094 259.109375 95.691406 C 259.109375 95.691406 259.109375 92.636719 256.054688 89.582031 L 240.792969 77.363281 C 237.738281 71.253906 228.578125 65.144531 225.527344 68.199219 C 213.3125 74.308594 210.261719 80.417969 204.15625 92.636719 C 191.941406 92.636719 182.785156 92.636719 173.625 92.636719 C 167.519531 92.636719 161.414062 89.582031 155.304688 89.582031 C 152.253906 95.691406 143.09375 101.800781 136.988281 104.855469 C 136.988281 107.910156 140.042969 110.964844 143.09375 114.019531 C 149.199219 120.128906 155.304688 129.292969 167.519531 141.511719 C 185.835938 156.785156 198.046875 169.003906 204.15625 184.277344 C 210.261719 196.496094 207.207031 208.714844 194.996094 217.878906 Z M 158.359375 62.089844 C 167.519531 62.089844 176.675781 65.144531 179.730469 65.144531 C 185.835938 65.144531 176.675781 77.363281 176.675781 80.417969 L 185.835938 83.472656 C 185.835938 83.472656 188.890625 83.472656 188.890625 83.472656 C 188.890625 83.472656 198.046875 68.199219 194.996094 62.089844 C 194.996094 62.089844 194.996094 59.035156 191.941406 59.035156 C 185.835938 55.980469 179.730469 52.925781 173.625 52.925781 C 170.570312 52.925781 152.253906 52.925781 155.304688 62.089844 C 158.359375 62.089844 158.359375 62.089844 158.359375 62.089844 Z M 158.359375 62.089844 " fill-opacity="1" fill-rule="evenodd"/><g clip-path="url(#72f9ac6751)"><path fill="#333632" d="M 127.828125 257.589844 C 124.777344 254.535156 124.777344 248.425781 121.722656 245.371094 C 121.722656 239.261719 124.777344 233.152344 127.828125 227.042969 C 127.828125 223.988281 127.828125 223.988281 127.828125 223.988281 C 127.828125 223.988281 127.828125 223.988281 124.777344 227.042969 C 118.671875 233.152344 115.617188 239.261719 115.617188 245.371094 C 115.617188 248.425781 118.671875 254.535156 127.828125 260.644531 C 127.828125 260.644531 127.828125 260.644531 127.828125 257.589844 Z M 121.722656 269.808594 C 112.5625 260.644531 106.457031 251.480469 106.457031 245.371094 C 106.457031 236.207031 109.511719 227.042969 121.722656 220.933594 C 124.777344 214.824219 127.828125 214.824219 130.882812 211.769531 C 133.933594 211.769531 133.933594 211.769531 136.988281 211.769531 C 136.988281 214.824219 140.042969 214.824219 140.042969 217.878906 C 140.042969 220.933594 136.988281 223.988281 133.933594 230.097656 C 130.882812 233.152344 130.882812 239.261719 130.882812 242.316406 C 130.882812 245.371094 133.933594 248.425781 133.933594 251.480469 C 146.148438 239.261719 161.414062 223.988281 182.785156 208.714844 C 191.941406 202.605469 194.996094 193.441406 188.890625 181.222656 C 185.835938 169.003906 173.625 156.785156 155.304688 141.511719 C 146.148438 132.347656 136.988281 123.183594 130.882812 114.019531 C 124.777344 107.910156 121.722656 98.746094 121.722656 95.691406 L 121.722656 92.636719 C 118.671875 86.527344 121.722656 80.417969 127.828125 77.363281 C 130.882812 74.308594 140.042969 74.308594 149.199219 77.363281 C 155.304688 77.363281 161.414062 80.417969 170.570312 80.417969 C 173.625 71.253906 173.625 68.199219 173.625 68.199219 C 167.519531 68.199219 161.414062 68.199219 155.304688 68.199219 C 152.253906 68.199219 149.199219 68.199219 146.148438 65.144531 C 143.09375 65.144531 143.09375 62.089844 143.09375 59.035156 C 140.042969 59.035156 140.042969 55.980469 140.042969 52.925781 C 143.09375 43.761719 158.359375 40.707031 167.519531 40.707031 C 176.675781 40.707031 182.785156 43.761719 188.890625 46.816406 L 191.941406 46.816406 C 194.996094 49.871094 198.046875 52.925781 198.046875 55.980469 C 198.046875 62.089844 198.046875 65.144531 198.046875 68.199219 C 194.996094 71.253906 194.996094 74.308594 191.941406 80.417969 C 194.996094 80.417969 194.996094 80.417969 194.996094 80.417969 C 204.15625 68.199219 210.261719 62.089844 219.421875 59.035156 C 225.527344 52.925781 234.683594 55.980469 240.792969 62.089844 L 256.054688 80.417969 C 259.109375 83.472656 262.164062 89.582031 262.164062 92.636719 C 262.164062 95.691406 259.109375 98.746094 256.054688 101.800781 C 253.003906 104.855469 249.949219 107.910156 246.898438 107.910156 C 240.792969 107.910156 237.738281 107.910156 234.683594 104.855469 L 219.421875 89.582031 C 216.367188 95.691406 216.367188 101.800781 216.367188 110.964844 C 219.421875 120.128906 222.472656 135.402344 231.632812 153.730469 C 243.84375 181.222656 249.949219 205.660156 256.054688 230.097656 C 262.164062 251.480469 265.214844 272.863281 262.164062 291.191406 C 262.164062 294.246094 262.164062 297.300781 259.109375 300.355469 C 256.054688 300.355469 256.054688 300.355469 253.003906 300.355469 C 249.949219 300.355469 246.898438 300.355469 246.898438 300.355469 C 243.84375 297.300781 243.84375 294.246094 243.84375 294.246094 C 240.792969 291.191406 240.792969 291.191406 240.792969 291.191406 C 240.792969 285.082031 237.738281 282.027344 234.683594 278.972656 C 231.632812 275.917969 228.578125 275.917969 225.527344 275.917969 C 222.472656 278.972656 222.472656 278.972656 222.472656 282.027344 C 219.421875 285.082031 222.472656 288.136719 222.472656 291.191406 C 222.472656 294.246094 222.472656 294.246094 222.472656 297.300781 C 222.472656 300.355469 222.472656 300.355469 219.421875 300.355469 C 219.421875 303.410156 216.367188 303.410156 216.367188 303.410156 C 213.3125 303.410156 210.261719 303.410156 210.261719 303.410156 C 201.101562 300.355469 201.101562 288.136719 188.890625 282.027344 C 182.785156 278.972656 173.625 275.917969 164.464844 275.917969 C 158.359375 275.917969 149.199219 278.972656 143.09375 282.027344 C 130.882812 291.191406 130.882812 303.410156 127.828125 306.464844 C 124.777344 306.464844 124.777344 306.464844 121.722656 306.464844 C 121.722656 306.464844 118.671875 306.464844 118.671875 306.464844 C 115.617188 303.410156 115.617188 303.410156 115.617188 303.410156 C 115.617188 300.355469 115.617188 300.355469 115.617188 297.300781 C 112.5625 288.136719 115.617188 278.972656 121.722656 269.808594 Z M 179.730469 80.417969 C 179.730469 80.417969 182.785156 80.417969 182.785156 80.417969 C 182.785156 80.417969 191.941406 62.089844 188.890625 59.035156 C 188.890625 55.980469 188.890625 55.980469 185.835938 52.925781 C 179.730469 49.871094 173.625 49.871094 167.519531 49.871094 C 164.464844 49.871094 146.148438 49.871094 149.199219 55.980469 C 149.199219 59.035156 149.199219 59.035156 152.253906 59.035156 L 155.304688 59.035156 C 164.464844 59.035156 170.570312 59.035156 173.625 62.089844 C 182.785156 62.089844 182.785156 65.144531 182.785156 71.253906 Z M 167.519531 86.527344 C 161.414062 86.527344 155.304688 86.527344 152.253906 86.527344 C 146.148438 89.582031 143.09375 92.636719 140.042969 95.691406 C 136.988281 95.691406 133.933594 98.746094 130.882812 98.746094 C 133.933594 101.800781 133.933594 104.855469 136.988281 110.964844 C 143.09375 117.074219 152.253906 126.238281 161.414062 135.402344 C 182.785156 150.675781 191.941406 165.949219 198.046875 178.167969 C 204.15625 193.441406 201.101562 205.660156 188.890625 214.824219 C 164.464844 230.097656 149.199219 245.371094 136.988281 260.644531 C 127.828125 272.863281 121.722656 285.082031 121.722656 297.300781 C 124.777344 288.136719 130.882812 282.027344 140.042969 275.917969 C 146.148438 272.863281 155.304688 269.808594 164.464844 269.808594 C 173.625 266.753906 185.835938 269.808594 191.941406 275.917969 C 204.15625 282.027344 213.3125 297.300781 213.3125 297.300781 C 213.3125 297.300781 213.3125 297.300781 216.367188 297.300781 C 216.367188 294.246094 216.367188 294.246094 216.367188 294.246094 C 213.3125 288.136719 213.3125 285.082031 213.3125 278.972656 C 213.3125 275.917969 216.367188 272.863281 222.472656 269.808594 C 228.578125 266.753906 234.683594 269.808594 237.738281 272.863281 C 243.84375 275.917969 246.898438 282.027344 249.949219 288.136719 C 249.949219 288.136719 249.949219 291.191406 249.949219 291.191406 C 249.949219 291.191406 249.949219 294.246094 249.949219 294.246094 C 253.003906 294.246094 253.003906 294.246094 253.003906 294.246094 C 253.003906 294.246094 253.003906 291.191406 253.003906 291.191406 C 256.054688 272.863281 253.003906 254.535156 249.949219 230.097656 C 243.84375 208.714844 234.683594 184.277344 222.472656 156.785156 C 213.3125 138.457031 210.261719 123.183594 207.207031 110.964844 C 207.207031 98.746094 210.261719 89.582031 213.3125 83.472656 C 213.3125 83.472656 216.367188 80.417969 216.367188 80.417969 C 219.421875 80.417969 219.421875 80.417969 222.472656 83.472656 L 240.792969 98.746094 C 240.792969 98.746094 243.84375 98.746094 243.84375 98.746094 C 246.898438 98.746094 249.949219 98.746094 249.949219 98.746094 C 253.003906 95.691406 253.003906 92.636719 253.003906 92.636719 C 253.003906 89.582031 253.003906 86.527344 249.949219 86.527344 L 234.683594 68.199219 C 231.632812 62.089844 225.527344 62.089844 222.472656 65.144531 C 216.367188 68.199219 210.261719 74.308594 201.101562 86.527344 L 201.101562 89.582031 L 198.046875 89.582031 C 188.890625 89.582031 176.675781 89.582031 167.519531 86.527344 Z M 140.042969 83.472656 C 136.988281 83.472656 133.933594 83.472656 130.882812 83.472656 C 127.828125 83.472656 127.828125 86.527344 127.828125 92.636719 C 130.882812 89.582031 133.933594 89.582031 133.933594 86.527344 C 136.988281 86.527344 140.042969 83.472656 140.042969 83.472656 Z M 140.042969 83.472656 " fill-opacity="1" fill-rule="nonzero"/></g><g clip-path="url(#e2412aef4d)"><path fill="#333632" d="M 228.578125 324.792969 C 207.207031 324.792969 188.890625 327.847656 188.890625 327.847656 C 188.890625 330.902344 207.207031 333.957031 228.578125 333.957031 C 249.949219 333.957031 268.269531 330.902344 268.269531 327.847656 C 268.269531 327.847656 249.949219 324.792969 228.578125 324.792969 Z M 228.578125 324.792969 " fill-opacity="1" fill-rule="evenodd"/></g></svg>